<svg width="652" height="80" fill="none" xmlns="http://www.w3.org/2000/svg"><path d="M55.36 76.415a2.118 2.118 0 0 0 2.08 2.52h11.335a3.177 3.177 0 0 0 3.12-2.572l9.394-48.478a2.118 2.118 0 0 0-2.08-2.52H67.874a3.177 3.177 0 0 0-3.12 2.572L55.36 76.415Z" fill="url(#a)"/><path d="M71.873 17.05a9.537 9.537 0 0 0 3.76.586 11.995 11.995 0 0 0 7.15-2.276 9.339 9.339 0 0 0 3.867-6.14 6.973 6.973 0 0 0-1.907-6.724A9.664 9.664 0 0 0 77.858.008a12.716 12.716 0 0 0-7.15 2.118 8.917 8.917 0 0 0-3.867 6.087 7.049 7.049 0 0 0 1.8 6.83 9.534 9.534 0 0 0 3.232 2.008Z" fill="url(#b)"/><path fill-rule="evenodd" clip-rule="evenodd" d="M31.415 76.426a2.118 2.118 0 0 0 2.082 2.51h11.34a3.177 3.177 0 0 0 3.12-2.57l14.06-72.195a2.118 2.118 0 0 0-2.079-2.522H48.593a3.177 3.177 0 0 0-3.12 2.57l-5.739 29.51a14.156 14.156 0 0 0-4.989-6.83 14.327 14.327 0 0 0-8.781-2.593 20.674 20.674 0 0 0-11.769 3.335 25.223 25.223 0 0 0-8.05 8.893 41.021 41.021 0 0 0-4.333 12.228l-1.27 6.882A27.671 27.671 0 0 0 .752 67.5a17.18 17.18 0 0 0 5.233 9.052c2.585 2.294 6.027 3.441 10.328 3.441a18.577 18.577 0 0 0 9.332-2.276 20.122 20.122 0 0 0 6.673-6.088l-.904 4.796ZM24.567 39.5a7.418 7.418 0 0 1 3.727-.794 8.085 8.085 0 0 1 6.885 3.123 9.271 9.271 0 0 1 1.483 7.57l-1.059 5.505a15.877 15.877 0 0 1-3.548 7.57 9.119 9.119 0 0 1-7.267 3.123 6.359 6.359 0 0 1-6.133-3.388 11.047 11.047 0 0 1-.954-7.623l.954-4.87a20.839 20.839 0 0 1 3.072-7.676 7.414 7.414 0 0 1 2.84-2.54Z" fill="url(#c)"/><path d="M463.142 78.936a2.118 2.118 0 0 1-2.08-2.52l9.394-48.48a3.177 3.177 0 0 1 3.12-2.571h11.335a2.118 2.118 0 0 1 2.08 2.52l-9.394 48.478a3.178 3.178 0 0 1-3.12 2.573h-11.335Z" fill="url(#d)"/><path d="M481.335 17.636a9.54 9.54 0 0 1-6.991-2.594 7.051 7.051 0 0 1-1.801-6.829 8.913 8.913 0 0 1 3.867-6.087 12.715 12.715 0 0 1 7.15-2.118 9.665 9.665 0 0 1 6.885 2.488 6.98 6.98 0 0 1 1.907 6.723 9.336 9.336 0 0 1-3.867 6.14 11.994 11.994 0 0 1-7.15 2.277Z" fill="url(#e)"/><path d="M92.718 78.932a3.177 3.177 0 0 0 3.119-2.567l5.154-26.336a19.852 19.852 0 0 1 2.436-6.511 10.453 10.453 0 0 1 3.761-3.653 9.473 9.473 0 0 1 4.502-1.164c2.267 0 3.771.794 4.555 2.382.784 1.588.847 4.044.212 7.358l-5.442 27.97a2.118 2.118 0 0 0 2.08 2.52h11.243a3.177 3.177 0 0 0 3.118-2.565l5.218-26.655a17.931 17.931 0 0 1 2.489-6.405 10.722 10.722 0 0 1 3.761-3.494 9.26 9.26 0 0 1 4.343-1.111c2.267 0 3.771.794 4.555 2.382.784 1.588.847 4.044.211 7.358l-5.441 27.97a2.118 2.118 0 0 0 2.08 2.52h11.335a3.179 3.179 0 0 0 3.12-2.569l5.177-26.59.028-.15.028-.146.043-.212a17.953 17.953 0 0 1 2.39-5.897 10.722 10.722 0 0 1 3.761-3.493 9.261 9.261 0 0 1 4.343-1.112c2.267 0 3.771.794 4.555 2.382.783 1.588.847 4.044.211 7.358l-5.441 27.97a2.118 2.118 0 0 0 2.08 2.521h11.335a3.177 3.177 0 0 0 3.119-2.57l5.372-27.585a17.91 17.91 0 0 1 2.295-5.47 10.722 10.722 0 0 1 3.761-3.494 9.261 9.261 0 0 1 4.343-1.112c2.267 0 3.771.794 4.555 2.382.783 1.588.847 4.044.211 7.358l-5.441 27.97a2.118 2.118 0 0 0 2.08 2.521h11.335a3.178 3.178 0 0 0 3.12-2.57l5.372-27.59a17.935 17.935 0 0 1 2.294-5.465 10.713 10.713 0 0 1 3.761-3.494 9.261 9.261 0 0 1 4.343-1.112c2.266 0 3.771.794 4.554 2.382.784 1.588.848 4.044.212 7.358l-5.441 27.97a2.118 2.118 0 0 0 2.08 2.521h11.335a3.177 3.177 0 0 0 3.119-2.57l5.372-27.585a17.912 17.912 0 0 1 2.295-5.47 10.713 10.713 0 0 1 3.761-3.494 9.261 9.261 0 0 1 4.343-1.112c2.266 0 3.771.794 4.555 2.382.783 1.588.847 4.044.211 7.358l-5.441 27.97a2.118 2.118 0 0 0 2.08 2.521h11.335a3.177 3.177 0 0 0 3.119-2.57l6.385-32.79a19.05 19.05 0 0 0-.264-9.53 14.106 14.106 0 0 0-4.661-7.04 13.278 13.278 0 0 0-8.633-2.7 24.367 24.367 0 0 0-9.957 2.118 22.793 22.793 0 0 0-8.579 6.986 14.11 14.11 0 0 0-4.461-6.404 13.278 13.278 0 0 0-8.633-2.7 24.376 24.376 0 0 0-9.958 2.118 22.798 22.798 0 0 0-8.578 6.986 14.111 14.111 0 0 0-4.461-6.404 13.278 13.278 0 0 0-8.633-2.7 24.37 24.37 0 0 0-9.957 2.118 22.793 22.793 0 0 0-8.579 6.986 14.111 14.111 0 0 0-4.461-6.404 13.278 13.278 0 0 0-8.633-2.7 24.37 24.37 0 0 0-9.957 2.118 22.806 22.806 0 0 0-8.565 6.967 14.1 14.1 0 0 0-4.475-6.446 13.278 13.278 0 0 0-8.633-2.7 24.373 24.373 0 0 0-9.957 2.118 22.807 22.807 0 0 0-8.581 6.987 13.113 13.113 0 0 0-5.02-6.781 13.132 13.132 0 0 0-8.115-2.324c-3.047-.01-6.05.736-8.739 2.17a21.74 21.74 0 0 0-7.414 7.147l1.104-5.74a2.118 2.118 0 0 0-2.08-2.518H91.812a3.177 3.177 0 0 0-3.12 2.572l-9.394 48.479a2.118 2.118 0 0 0 2.08 2.52h11.34Z" fill="url(#f)"/><path fill-rule="evenodd" clip-rule="evenodd" d="M341.439 62.61c1.499 0 2.522 1.514 1.861 2.859-2.385 4.857-5.423 8.386-9.113 10.587a28.96 28.96 0 0 1-15.147 3.917 26.996 26.996 0 0 1-12.553-2.911 19.062 19.062 0 0 1-8.474-8.523c-1.907-3.74-2.33-8.258-1.271-13.552l1.377-6.881c1.561-7.686 4.791-13.58 9.692-17.68a26.979 26.979 0 0 1 17.849-6.141c5.579 0 10.134 1.13 13.665 3.388a18.002 18.002 0 0 1 7.415 9.105 23.813 23.813 0 0 1 .741 12.916l-1.377 6.987h-32.626c-.069.58-.104 1.163-.106 1.747v1.641a6.557 6.557 0 0 0 2.119 4.5 7.577 7.577 0 0 0 5.084 1.535 9.93 9.93 0 0 0 4.714-.9c.717-.404 1.38-.893 1.977-1.454.711-.668 1.612-1.14 2.589-1.14h11.584Zm-26.001-15.88h16.631c.353-2.965-.018-5.188-1.113-6.67-1.094-1.483-3.054-2.224-5.879-2.224a8.21 8.21 0 0 0-6.143 2.382 14.82 14.82 0 0 0-3.496 6.511Z" fill="url(#g)"/><path d="M363.466 78.936a3.178 3.178 0 0 0 3.12-2.572l5.009-25.802a19.47 19.47 0 0 1 2.542-6.934 10.593 10.593 0 0 1 3.972-3.759 10.049 10.049 0 0 1 4.608-1.164c2.683-.008 4.431.787 5.243 2.382.812 1.595.901 4.047.265 7.358l-5.441 27.97a2.118 2.118 0 0 0 2.079 2.52h11.336a3.177 3.177 0 0 0 3.119-2.569l6.385-32.791a19.153 19.153 0 0 0-.265-9.529 14.098 14.098 0 0 0-4.66-7.04 13.301 13.301 0 0 0-8.633-2.7 20.134 20.134 0 0 0-9.375 2.276 22.483 22.483 0 0 0-7.998 7.57l1.21-6.269a2.119 2.119 0 0 0-2.081-2.518h-11.337a3.178 3.178 0 0 0-3.12 2.572l-9.394 48.479a2.118 2.118 0 0 0 2.08 2.52h11.336Z" fill="url(#h)"/><path d="M559.797 76.365a3.178 3.178 0 0 1-3.12 2.57h-11.336a2.117 2.117 0 0 1-2.079-2.52l9.394-48.478a3.177 3.177 0 0 1 3.12-2.572h11.337a2.118 2.118 0 0 1 2.08 2.518l-1.209 6.269a22.483 22.483 0 0 1 7.998-7.57 20.133 20.133 0 0 1 9.374-2.276c3.105-.136 6.16.819 8.633 2.7a14.1 14.1 0 0 1 4.661 7.04c.889 3.103.98 6.38.265 9.529l-6.385 32.791a3.177 3.177 0 0 1-3.119 2.57h-11.336a2.118 2.118 0 0 1-2.08-2.522l5.442-27.97c.635-3.31.547-5.762-.265-7.357-.812-1.596-2.56-2.39-5.243-2.383a10.046 10.046 0 0 0-4.608 1.165 10.588 10.588 0 0 0-3.973 3.759 19.509 19.509 0 0 0-2.542 6.934l-5.009 25.803Z" fill="url(#i)"/><path d="M432.609 37.805a8.087 8.087 0 0 1 4.343-1.006 6.496 6.496 0 0 1 4.502 1.323 4.869 4.869 0 0 1 1.11 1.836c.364 1.09 1.228 2.134 2.378 2.134h11.838c1.12 0 2.059-.873 2.033-1.992-.111-4.818-1.802-8.565-5.071-11.242-3.708-3.035-8.916-4.552-15.625-4.552a36.148 36.148 0 0 0-11.122 1.641 20.047 20.047 0 0 0-8.474 5.188 17.19 17.19 0 0 0-4.343 9.37c-.742 4.298-.036 7.933 2.118 10.904s5.808 5.054 10.964 6.247l7.944 1.8a8.405 8.405 0 0 1 3.496 1.428 2.537 2.537 0 0 1 .741 2.594 4.134 4.134 0 0 1-2.118 3.07 11.216 11.216 0 0 1-5.456 1.06 9.05 9.05 0 0 1-5.455-1.377 5.13 5.13 0 0 1-1.634-1.967c-.483-1.024-1.375-1.95-2.507-1.95h-11.633c-1.132 0-2.077.89-2.032 2.02.194 4.988 2.087 8.76 5.678 11.32 4.06 2.893 9.762 4.34 17.107 4.34 3.826.032 7.633-.54 11.281-1.694a21.645 21.645 0 0 0 8.845-5.293 16.493 16.493 0 0 0 4.555-9.211c.812-4.588.194-8.24-1.854-10.958-2.048-2.717-6.285-4.782-12.711-6.193l-6.674-1.482a7.075 7.075 0 0 1-3.389-1.535 2.914 2.914 0 0 1-.742-2.806 4.24 4.24 0 0 1 1.907-3.017Z" fill="url(#j)"/><path d="M630.138 36.799a8.087 8.087 0 0 0-4.343 1.006 4.223 4.223 0 0 0-1.906 3.017 2.908 2.908 0 0 0 .741 2.805 7.079 7.079 0 0 0 3.39 1.536l6.673 1.482c6.426 1.411 10.664 3.476 12.711 6.193 2.048 2.718 2.666 6.37 1.854 10.958a16.487 16.487 0 0 1-4.555 9.21 21.639 21.639 0 0 1-8.845 5.294 36.385 36.385 0 0 1-11.281 1.694c-7.344 0-13.047-1.447-17.107-4.34-3.591-2.56-5.484-6.332-5.678-11.32-.044-1.13.901-2.02 2.032-2.02h11.633c1.132 0 2.024.926 2.507 1.95a5.121 5.121 0 0 0 1.635 1.968 9.046 9.046 0 0 0 5.455 1.375c1.878.11 3.754-.253 5.455-1.058a4.14 4.14 0 0 0 2.119-3.07 2.546 2.546 0 0 0-.742-2.594 8.405 8.405 0 0 0-3.496-1.43l-7.944-1.8c-5.155-1.192-8.81-3.275-10.964-6.246-2.154-2.971-2.86-6.606-2.118-10.905a17.19 17.19 0 0 1 4.343-9.37 20.053 20.053 0 0 1 8.474-5.187 36.148 36.148 0 0 1 11.122-1.641c6.709 0 11.917 1.517 15.625 4.552 3.27 2.677 4.96 6.424 5.071 11.242.026 1.12-.913 1.992-2.033 1.992h-11.838c-1.15 0-2.014-1.044-2.377-2.134a4.871 4.871 0 0 0-1.111-1.836 6.496 6.496 0 0 0-4.502-1.323Z" fill="url(#k)"/><path fill-rule="evenodd" clip-rule="evenodd" d="M498.019 76.606a24.914 24.914 0 0 0 13.082 3.388c4.384.071 8.734-.784 12.764-2.509a27.11 27.11 0 0 0 9.905-7.41 24.346 24.346 0 0 0 5.296-11.223l1.695-8.787a21.414 21.414 0 0 0-1.165-13.287 20.325 20.325 0 0 0-8.21-9.105 24.763 24.763 0 0 0-12.976-3.367 32.285 32.285 0 0 0-12.446 2.382 25.07 25.07 0 0 0-9.746 7.094 27.256 27.256 0 0 0-5.561 11.804l-1.695 7.835c-1.13 5.23-.847 9.835.848 13.816a19.564 19.564 0 0 0 8.209 9.37Zm12.394-35.625a9.533 9.533 0 0 1 6.514-2.276 7.418 7.418 0 0 1 5.985 2.54c1.412 1.694 1.836 3.918 1.271 6.67l-1.377 7.305a16.01 16.01 0 0 1-3.178 7.517c-1.589 1.906-3.972 2.859-7.15 2.859-2.913 0-4.926-.985-6.091-2.965a10.365 10.365 0 0 1-.9-7.41l1.483-7.835a11.166 11.166 0 0 1 3.443-6.405Z" fill="url(#l)"/><defs><linearGradient id="a" x1="326" y1="0" x2="326" y2="80" gradientUnits="userSpaceOnUse"><stop stop-color="#85F"/><stop offset="1" stop-color="#B5F"/></linearGradient><linearGradient id="b" x1="326" y1="0" x2="326" y2="80" gradientUnits="userSpaceOnUse"><stop stop-color="#85F"/><stop offset="1" stop-color="#B5F"/></linearGradient><linearGradient id="c" x1="326" y1="0" x2="326" y2="80" gradientUnits="userSpaceOnUse"><stop stop-color="#85F"/><stop offset="1" stop-color="#B5F"/></linearGradient><linearGradient id="d" x1="326" y1="0" x2="326" y2="80" gradientUnits="userSpaceOnUse"><stop stop-color="#85F"/><stop offset="1" stop-color="#B5F"/></linearGradient><linearGradient id="e" x1="326" y1="0" x2="326" y2="80" gradientUnits="userSpaceOnUse"><stop stop-color="#85F"/><stop offset="1" stop-color="#B5F"/></linearGradient><linearGradient id="f" x1="326" y1="0" x2="326" y2="80" gradientUnits="userSpaceOnUse"><stop stop-color="#85F"/><stop offset="1" stop-color="#B5F"/></linearGradient><linearGradient id="g" x1="326" y1="0" x2="326" y2="80" gradientUnits="userSpaceOnUse"><stop stop-color="#85F"/><stop offset="1" stop-color="#B5F"/></linearGradient><linearGradient id="h" x1="326" y1="0" x2="326" y2="80" gradientUnits="userSpaceOnUse"><stop stop-color="#85F"/><stop offset="1" stop-color="#B5F"/></linearGradient><linearGradient id="i" x1="326" y1="0" x2="326" y2="80" gradientUnits="userSpaceOnUse"><stop stop-color="#85F"/><stop offset="1" stop-color="#B5F"/></linearGradient><linearGradient id="j" x1="326" y1="0" x2="326" y2="80" gradientUnits="userSpaceOnUse"><stop stop-color="#85F"/><stop offset="1" stop-color="#B5F"/></linearGradient><linearGradient id="k" x1="326" y1="0" x2="326" y2="80" gradientUnits="userSpaceOnUse"><stop stop-color="#85F"/><stop offset="1" stop-color="#B5F"/></linearGradient><linearGradient id="l" x1="326" y1="0" x2="326" y2="80" gradientUnits="userSpaceOnUse"><stop stop-color="#85F"/><stop offset="1" stop-color="#B5F"/></linearGradient></defs></svg>